<svg width="469.801" height="72.402" viewBox="0 0 469.801 72.402" xmlns="http://www.w3.org/2000/svg"><g id="svgGroup" stroke-linecap="round" fill-rule="nonzero" font-size="9pt" stroke="#2f2f2f" stroke-width="0mm" fill="#2f2f2f" style="stroke:#2f2f2f;stroke-width:0mm;fill:#2f2f2f"><path d="M 168.001 71.201 L 154.501 71.201 L 154.501 1.201 L 168.001 1.201 L 200.201 49.501 L 200.201 1.201 L 213.701 1.201 L 213.701 71.201 L 200.201 71.201 L 168.001 23.001 L 168.001 71.201 Z M 64.601 24.101 A 35.649 35.649 0 0 0 63.53 19.623 A 26.285 26.285 0 0 0 54.501 6.301 A 29 29 0 0 0 42.835 0.943 A 41.923 41.923 0 0 0 33.701 0.001 A 41.637 41.637 0 0 0 26.683 0.57 A 31.027 31.027 0 0 0 15.651 4.601 Q 8.101 9.201 4.051 17.401 A 37.662 37.662 0 0 0 1.011 26.235 A 48.024 48.024 0 0 0 0.001 36.301 A 50.006 50.006 0 0 0 0.524 43.662 A 38.307 38.307 0 0 0 4.051 55.151 Q 8.101 63.301 15.651 67.851 A 30.671 30.671 0 0 0 25.078 71.53 A 40.764 40.764 0 0 0 33.701 72.401 A 51.678 51.678 0 0 0 34.016 72.4 Q 38.896 72.37 43.091 71.417 A 29.125 29.125 0 0 0 54.501 66.201 Q 62.601 60.001 64.601 49.101 L 49.801 49.101 A 17.499 17.499 0 0 1 49.557 49.995 A 13.639 13.639 0 0 1 44.401 57.351 Q 41.774 59.241 38.081 59.92 A 24.791 24.791 0 0 1 33.601 60.301 A 23.386 23.386 0 0 1 29.897 60.018 A 17.688 17.688 0 0 1 22.951 57.401 A 17.367 17.367 0 0 1 19.202 54.101 A 20.436 20.436 0 0 1 16.101 49.101 Q 13.701 43.701 13.701 36.301 A 45.329 45.329 0 0 1 13.715 35.142 Q 13.888 28.383 16.101 23.451 Q 18.501 18.101 22.951 15.151 A 17.081 17.081 0 0 1 28.257 12.828 A 21.807 21.807 0 0 1 33.601 12.201 A 27.513 27.513 0 0 1 34.423 12.213 Q 40.558 12.397 44.451 15.351 A 13.947 13.947 0 0 1 48.014 19.32 A 16.47 16.47 0 0 1 49.901 24.101 L 64.601 24.101 Z M 408.901 24.101 A 35.649 35.649 0 0 0 407.83 19.623 A 26.285 26.285 0 0 0 398.801 6.301 A 29 29 0 0 0 387.135 0.943 A 41.923 41.923 0 0 0 378.001 0.001 A 41.637 41.637 0 0 0 370.983 0.57 A 31.027 31.027 0 0 0 359.951 4.601 Q 352.401 9.201 348.351 17.401 A 37.662 37.662 0 0 0 345.311 26.235 A 48.024 48.024 0 0 0 344.301 36.301 A 50.006 50.006 0 0 0 344.824 43.662 A 38.307 38.307 0 0 0 348.351 55.151 Q 352.401 63.301 359.951 67.851 A 30.671 30.671 0 0 0 369.378 71.53 A 40.764 40.764 0 0 0 378.001 72.401 A 51.678 51.678 0 0 0 378.316 72.4 Q 383.196 72.37 387.391 71.417 A 29.125 29.125 0 0 0 398.801 66.201 Q 406.901 60.001 408.901 49.101 L 394.101 49.101 A 17.499 17.499 0 0 1 393.857 49.995 A 13.639 13.639 0 0 1 388.701 57.351 Q 386.074 59.241 382.381 59.92 A 24.791 24.791 0 0 1 377.901 60.301 A 23.386 23.386 0 0 1 374.197 60.018 A 17.688 17.688 0 0 1 367.251 57.401 A 17.367 17.367 0 0 1 363.502 54.101 A 20.436 20.436 0 0 1 360.401 49.101 Q 358.001 43.701 358.001 36.301 A 45.329 45.329 0 0 1 358.015 35.142 Q 358.188 28.383 360.401 23.451 Q 362.801 18.101 367.251 15.151 A 17.081 17.081 0 0 1 372.557 12.828 A 21.807 21.807 0 0 1 377.901 12.201 A 27.513 27.513 0 0 1 378.723 12.213 Q 384.858 12.397 388.751 15.351 A 13.947 13.947 0 0 1 392.314 19.32 A 16.47 16.47 0 0 1 394.201 24.101 L 408.901 24.101 Z M 289.201 71.201 L 275.001 71.201 L 300.601 1.201 L 315.901 1.201 L 341.401 71.201 L 327.101 71.201 L 308.201 16.601 L 289.201 71.201 Z M 257.101 71.201 L 243.701 71.201 L 243.701 12.101 L 223.201 12.101 L 223.201 1.201 L 277.501 1.201 L 277.501 12.101 L 257.101 12.101 L 257.101 71.201 Z M 449.401 71.201 L 436.001 71.201 L 436.001 12.101 L 415.501 12.101 L 415.501 1.201 L 469.801 1.201 L 469.801 12.101 L 449.401 12.101 L 449.401 71.201 Z M 98.31 71.122 A 31.998 31.998 0 0 1 90.401 67.801 Q 82.601 63.201 78.201 55.051 A 36.44 36.44 0 0 1 74.23 42.639 A 46.794 46.794 0 0 1 73.801 36.201 Q 73.801 25.501 78.201 17.351 Q 82.601 9.201 90.401 4.601 Q 98.201 0.001 108.401 0.001 Q 118.701 0.001 126.501 4.601 Q 134.301 9.201 138.651 17.351 A 36.708 36.708 0 0 1 142.565 29.685 A 47.264 47.264 0 0 1 143.001 36.201 Q 143.001 46.901 138.651 55.051 Q 134.301 63.201 126.501 67.801 A 33.112 33.112 0 0 1 113.696 72.076 A 42.076 42.076 0 0 1 108.401 72.401 A 38.377 38.377 0 0 1 98.31 71.122 Z M 108.401 60.301 Q 114.801 60.301 119.451 57.351 A 19.384 19.384 0 0 0 126.008 50.333 A 23.708 23.708 0 0 0 126.701 49.001 Q 129.298 43.606 129.301 36.214 A 41.41 41.41 0 0 0 129.301 36.201 A 36.243 36.243 0 0 0 128.838 30.256 Q 128.204 26.444 126.701 23.351 A 20.684 20.684 0 0 0 122.898 17.869 A 18.518 18.518 0 0 0 119.451 15.101 A 18.962 18.962 0 0 0 112.253 12.488 A 24.993 24.993 0 0 0 108.401 12.201 Q 102.101 12.201 97.401 15.101 A 19.116 19.116 0 0 0 90.607 22.369 A 23.212 23.212 0 0 0 90.101 23.351 A 24.79 24.79 0 0 0 88.072 29.642 Q 87.554 32.4 87.506 35.546 A 42.46 42.46 0 0 0 87.501 36.201 Q 87.501 43.536 90.055 48.906 A 22.419 22.419 0 0 0 90.101 49.001 Q 92.701 54.401 97.401 57.351 Q 102.101 60.301 108.401 60.301 Z M 329.001 55.301 L 286.301 55.301 L 289.901 44.801 L 325.501 44.801 L 329.001 55.301 Z" vector-effect="non-scaling-stroke"/></g></svg>