<svg viewBox="0 0 65.801 50" xmlns="http://www.w3.org/2000/svg" fill-rule="evenodd" fill="#333333">
<path d="M 25.501 11.6 L 25.501 7.9 L 25.501 5.4 A 11.488 11.488 0 0 1 25.618 3.728 A 9.559 9.559 0 0 1 25.801 2.8 A 5.946 5.946 0 0 1 26.159 1.763 A 4.474 4.474 0 0 1 26.751 0.8 A 2.028 2.028 0 0 1 27.736 0.148 Q 28.199 0 28.801 0 A 3.31 3.31 0 0 1 29.49 0.077 Q 29.81 0.145 30.155 0.273 A 6.022 6.022 0 0 1 30.351 0.35 Q 31.201 0.7 31.951 1.25 Q 32.701 1.8 33.301 2.55 A 3.673 3.673 0 0 1 33.73 3.216 A 2.761 2.761 0 0 1 34.001 4.1 Q 34.001 5.4 33.701 6.8 A 13.574 13.574 0 0 0 33.43 8.82 A 16.11 16.11 0 0 0 33.401 9.8 Q 33.401 12.4 33.651 14.95 A 118.423 118.423 0 0 1 33.841 17.076 Q 33.919 18.05 33.97 18.927 A 69.464 69.464 0 0 1 34.001 19.5 Q 34.809 19.5 35.779 19.177 A 8.54 8.54 0 0 0 36.001 19.1 Q 37.101 18.7 38.101 18.1 Q 39.101 17.5 39.951 16.9 A 17.677 17.677 0 0 1 40.506 16.523 Q 41.007 16.197 41.401 16 Q 43.001 15 44.501 13.7 A 24.508 24.508 0 0 1 47.577 11.438 A 27.027 27.027 0 0 1 47.801 11.3 A 76.972 76.972 0 0 1 48.525 10.665 Q 48.847 10.386 49.204 10.082 A 139.452 139.452 0 0 1 49.951 9.45 Q 51.201 8.4 52.901 8.4 Q 53.301 8.4 54.051 8.65 A 4.569 4.569 0 0 1 55.098 9.161 A 5.552 5.552 0 0 1 55.501 9.45 Q 56.201 10 56.751 10.75 A 2.846 2.846 0 0 1 57.298 12.345 A 3.533 3.533 0 0 1 57.301 12.5 Q 57.301 13.5 57.001 14.05 Q 56.701 14.6 56.201 14.95 Q 55.701 15.3 55.051 15.65 A 5.014 5.014 0 0 0 54.229 16.209 A 6.23 6.23 0 0 0 53.801 16.6 Q 53.101 17.1 52.651 17.75 A 5.827 5.827 0 0 1 52.218 18.304 Q 51.97 18.583 51.709 18.793 A 3.612 3.612 0 0 1 51.701 18.8 Q 50.601 19.6 49.351 20.25 Q 48.101 20.9 47.001 21.7 L 45.801 22.7 A 14.495 14.495 0 0 1 44.901 23.394 A 12.868 12.868 0 0 1 44.601 23.6 Q 43.901 24 43.101 24.25 A 2.248 2.248 0 0 0 41.999 25.019 A 2.987 2.987 0 0 0 41.801 25.3 Q 41.801 25.592 42.891 26.263 A 13.651 13.651 0 0 0 42.951 26.3 A 50.33 50.33 0 0 0 43.884 26.853 Q 44.72 27.338 45.751 27.9 Q 47.401 28.8 49.101 29.7 A 110.104 110.104 0 0 1 50.306 30.347 Q 50.778 30.605 51.202 30.843 A 58.008 58.008 0 0 1 52.001 31.3 Q 54.101 32.9 56.651 34.65 A 66.912 66.912 0 0 0 60.762 37.263 A 59.693 59.693 0 0 0 61.701 37.8 Q 62.401 38.2 63.151 38.5 A 7.787 7.787 0 0 1 64.071 38.937 A 6.582 6.582 0 0 1 64.501 39.2 Q 65.101 39.6 65.451 40.2 A 2.195 2.195 0 0 1 65.664 40.72 Q 65.801 41.213 65.801 41.9 A 3.207 3.207 0 0 1 65.321 43.558 Q 65.032 44.045 64.568 44.517 A 7.284 7.284 0 0 1 64.101 44.95 A 6.102 6.102 0 0 1 62.182 46.081 A 5.575 5.575 0 0 1 60.301 46.4 A 2.749 2.749 0 0 1 59.668 46.318 Q 59.046 46.17 58.242 45.755 A 11.631 11.631 0 0 1 57.951 45.6 Q 56.501 44.8 54.751 43.6 Q 53.001 42.4 51.251 41.1 Q 49.557 39.842 48.098 38.958 A 28.903 28.903 0 0 0 48.001 38.9 Q 46.501 37.9 44.751 36.75 Q 43.001 35.6 41.301 34.55 Q 39.601 33.5 38.151 32.75 Q 36.701 32 35.701 31.8 A 5.693 5.693 0 0 1 35.681 32.28 A 4.731 4.731 0 0 1 35.651 32.55 Q 35.601 32.9 35.601 33.2 Q 35.601 36.1 35.951 39.6 A 40.68 40.68 0 0 0 36.204 41.641 Q 36.499 43.587 36.938 44.914 A 11.337 11.337 0 0 0 37.001 45.1 A 1.906 1.906 0 0 0 37.012 45.298 Q 37.024 45.417 37.051 45.55 A 2.842 2.842 0 0 1 37.085 45.759 Q 37.101 45.888 37.101 46 Q 37.101 49.711 32.969 49.979 A 10.332 10.332 0 0 1 32.301 50 A 5.22 5.22 0 0 1 31.531 49.947 Q 30.693 49.822 30.201 49.4 A 2.944 2.944 0 0 1 29.646 48.751 Q 29.446 48.44 29.283 48.048 A 6.268 6.268 0 0 1 29.101 47.55 Q 28.81 46.642 28.652 45.364 A 21.831 21.831 0 0 1 28.551 44.35 Q 28.448 43.009 28.274 41.314 A 194.642 194.642 0 0 0 28.101 39.7 Q 27.801 37.1 27.751 34.9 A 11.106 11.106 0 0 0 27.427 32.429 A 9.449 9.449 0 0 0 26.901 30.9 A 11.113 11.113 0 0 0 24.848 31.225 A 9.801 9.801 0 0 0 24.101 31.45 A 29.819 29.819 0 0 0 22.554 32.032 A 24.528 24.528 0 0 0 21.701 32.4 Q 19.601 33.3 17.201 34.25 Q 14.801 35.2 13.301 36.7 Q 12.888 36.975 12.358 37.345 A 97.117 97.117 0 0 0 11.851 37.7 Q 11.001 38.3 10.101 38.85 A 19.596 19.596 0 0 1 8.995 39.479 A 16.466 16.466 0 0 1 8.351 39.8 Q 7.667 40.122 7.08 40.185 A 2.62 2.62 0 0 1 6.801 40.2 A 3.144 3.144 0 0 1 4.475 39.187 A 4.648 4.648 0 0 1 4.101 38.75 Q 3.238 37.612 3.052 36.813 A 1.827 1.827 0 0 1 3.001 36.4 Q 3.001 34.4 4.151 33.5 Q 5.301 32.6 6.701 31.8 Q 9.901 30.1 12.951 28.25 Q 15.798 26.523 19.648 24.926 A 70.383 70.383 0 0 1 20.201 24.7 L 21.801 24.3 A 3.498 3.498 0 0 0 23.048 23.72 A 3.377 3.377 0 0 0 23.201 23.6 Q 21.801 21.7 19.251 20.15 Q 16.701 18.6 13.851 17.3 Q 11.001 16 8.201 14.8 Q 5.795 13.769 3.979 12.738 A 28.112 28.112 0 0 1 3.401 12.4 Q 1.356 11.738 0.541 10.425 A 3.761 3.761 0 0 1 0.001 8.4 A 4.327 4.327 0 0 1 0.257 6.888 A 3.856 3.856 0 0 1 1.101 5.55 A 4.067 4.067 0 0 1 2.006 4.827 A 3.144 3.144 0 0 1 3.601 4.4 Q 5.901 4.4 7.701 5.7 Q 9.501 7 11.501 7.9 A 45.281 45.281 0 0 1 15.941 9.746 A 36.429 36.429 0 0 1 19.001 11.4 Q 22.301 13.4 25.201 14.8 A 4.611 4.611 0 0 0 25.49 13.5 A 4.276 4.276 0 0 0 25.501 13.2 L 25.501 11.6 Z" vector-effect="non-scaling-stroke"/></svg>