 <svg id="spinning-logo" class="logo" width="84" height="103" viewBox="0 0 84 103"
           fill-rule="evenodd" fill="#333333">
            <path
              d="M 8.5 25.5 A 21.401 21.401 0 0 0 10.241 22.988 A 17.763 17.763 0 0 0 11.05 21.45 A 11.915 11.915 0 0 1 12.193 19.518 Q 12.811 18.657 13.627 17.788 A 21.575 21.575 0 0 1 14.1 17.3 A 30.987 30.987 0 0 1 15.601 15.021 A 22.7 22.7 0 0 1 17.2 13.05 A 26.636 26.636 0 0 1 19.447 10.857 A 22.882 22.882 0 0 1 20.5 10 Q 22.2 8.7 23.95 7.7 Q 25.7 6.7 27.4 5.8 A 71.257 71.257 0 0 1 28.891 4.97 Q 29.477 4.654 30.004 4.386 A 33.776 33.776 0 0 1 31 3.9 Q 32.4 3.247 34.062 2.244 A 47.115 47.115 0 0 0 34.3 2.1 Q 35.8 1.3 37.1 0.65 A 5.24 5.24 0 0 1 38.19 0.26 Q 39.245 0 40.7 0 Q 44.1 0 47.95 0.1 A 49.411 49.411 0 0 1 55.55 0.904 A 54.024 54.024 0 0 1 55.8 0.95 Q 59.8 1.7 63.65 3.25 A 24.625 24.625 0 0 1 70.005 7.034 A 28.21 28.21 0 0 1 70.85 7.75 A 26.023 26.023 0 0 1 74.564 11.835 A 33.811 33.811 0 0 1 76.8 15.3 Q 79.141 19.442 80.59 25.286 A 59.151 59.151 0 0 1 80.9 26.6 Q 81.4 28.7 81.55 30.9 Q 81.7 33.1 81.9 35.5 Q 82.3 39.4 82.75 43.85 Q 83.2 48.3 83.7 53.2 Q 83.9 55.2 84.35 57.6 A 27.055 27.055 0 0 1 84.714 60.205 A 21.567 21.567 0 0 1 84.8 62.1 Q 84.8 63.4 84.35 64 A 3.826 3.826 0 0 0 83.997 64.578 Q 83.847 64.876 83.719 65.235 A 7.678 7.678 0 0 0 83.6 65.6 Q 82.6 68.3 81.05 71.75 A 40.76 40.76 0 0 1 78.114 77.18 A 36.849 36.849 0 0 1 77.5 78.1 A 6.551 6.551 0 0 0 77.114 78.518 Q 76.754 78.948 76.622 79.297 A 1.131 1.131 0 0 0 76.55 79.6 Q 76.5 80.2 76.2 80.8 A 4.305 4.305 0 0 1 75.584 81.58 A 3.569 3.569 0 0 1 75 82.05 Q 74.3 82.5 73.8 83.2 Q 72.1 86.5 69.65 89.45 Q 67.2 92.4 64 94.5 Q 61.2 96 58.45 97.85 A 35.544 35.544 0 0 1 55.409 99.691 A 27.924 27.924 0 0 1 53.1 100.8 Q 50.9 101.7 49.7 102.15 Q 48.5 102.6 47.8 102.75 Q 47.1 102.9 46.6 102.9 A 6.217 6.217 0 0 0 46.197 102.914 Q 45.972 102.929 45.717 102.959 A 12.701 12.701 0 0 0 45.4 103 Q 43.9 103.2 42.25 103.45 Q 40.6 103.7 39 103.7 A 27.312 27.312 0 0 1 33.234 103.109 A 23.888 23.888 0 0 1 30.8 102.45 A 42.501 42.501 0 0 1 26.447 100.76 A 34.67 34.67 0 0 1 23.95 99.5 Q 20.9 97.8 18.7 95.9 Q 16.5 94 15.3 92.7 A 83.597 83.597 0 0 1 9.826 85.853 A 66.399 66.399 0 0 1 6.4 80.55 Q 2.9 74.5 1.5 68.9 A 31.241 31.241 0 0 1 0.945 66.55 Q 0.705 65.338 0.518 63.975 A 54.27 54.27 0 0 1 0.4 63.05 A 69.243 69.243 0 0 1 0.157 60.697 Q 0 58.842 0 57.4 A 39.794 39.794 0 0 1 0.171 53.791 A 49.354 49.354 0 0 1 0.45 51.4 Q 0.9 48.2 1.7 44.9 Q 2.5 41.6 3.55 38.4 A 98.539 98.539 0 0 1 4.815 34.776 A 79.299 79.299 0 0 1 5.7 32.5 Q 6.5 30.8 7.25 29.05 Q 8 27.3 8.5 25.5 Z M 44.8 6.7 Q 39.9 6.7 35.6 8.75 A 45.613 45.613 0 0 0 30.17 11.791 A 38.953 38.953 0 0 0 27.9 13.4 A 50.839 50.839 0 0 0 25.145 15.656 Q 23.77 16.869 22.654 18.06 A 29.681 29.681 0 0 0 22.25 18.5 A 220.525 220.525 0 0 0 21.34 19.517 Q 20.109 20.902 19.521 21.623 A 15.644 15.644 0 0 0 19.3 21.9 Q 17.2 24.4 15.8 26.7 A 34.404 34.404 0 0 0 14.003 30.078 A 41.078 41.078 0 0 0 13.25 31.8 A 53.95 53.95 0 0 0 12.253 34.432 Q 11.777 35.789 11.31 37.314 A 92.235 92.235 0 0 0 11 38.35 Q 10.244 40.928 9.298 44.286 A 965.842 965.842 0 0 0 8.4 47.5 Q 7.9 49.5 7.45 51.5 Q 7 53.5 7 55.7 Q 7 60.7 7.95 64.75 A 49.076 49.076 0 0 0 8.991 68.535 A 35.932 35.932 0 0 0 10.25 71.9 A 41.304 41.304 0 0 0 11.355 74.246 Q 11.914 75.337 12.482 76.253 A 21.36 21.36 0 0 0 13 77.05 Q 14.154 78.74 14.968 79.716 A 13.507 13.507 0 0 0 15.3 80.1 Q 16.9 82.4 18.75 85.05 A 26.446 26.446 0 0 0 20.004 86.712 Q 20.65 87.497 21.276 88.108 A 11.352 11.352 0 0 0 22.3 89 A 35.167 35.167 0 0 0 28.627 93.451 A 40.861 40.861 0 0 0 30.65 94.5 A 23.268 23.268 0 0 0 39.69 96.764 A 27.409 27.409 0 0 0 41.1 96.8 Q 43.7 96.8 46.2 96.1 A 32.843 32.843 0 0 0 49.01 95.181 A 26.659 26.659 0 0 0 50.75 94.45 A 61.802 61.802 0 0 0 52.438 93.638 Q 53.456 93.128 54.3 92.65 Q 55.8 91.8 56.4 91.5 A 27.122 27.122 0 0 0 59.389 90.082 Q 60.93 89.226 62.156 88.236 A 16.122 16.122 0 0 0 62.5 87.95 A 27.5 27.5 0 0 0 64.947 85.596 A 21.995 21.995 0 0 0 66.5 83.7 Q 68.1 81.5 69 79.45 Q 69.9 77.4 70.6 76 A 34.043 34.043 0 0 1 71.595 74.265 A 42.868 42.868 0 0 1 72.5 72.85 Q 73.6 71.2 74.65 69.45 Q 75.7 67.7 76.4 65.85 Q 77.1 64 77.1 62.1 Q 77.1 58.9 76.55 55.6 A 70.66 70.66 0 0 1 76.01 51.727 A 57.184 57.184 0 0 1 75.8 49.4 Q 75.3 42.7 74.55 35.75 Q 73.879 29.533 72.848 24.636 A 76.809 76.809 0 0 0 72.6 23.5 A 24.575 24.575 0 0 0 71.118 19.528 A 18.238 18.238 0 0 0 68.8 15.85 Q 66.3 12.8 62.7 10.9 A 29.238 29.238 0 0 0 57.325 8.737 A 35.433 35.433 0 0 0 54.6 8.05 A 68.705 68.705 0 0 0 48.819 7.097 A 85.365 85.365 0 0 0 44.8 6.7 Z M 28.2 40 L 28.2 37.3 A 42.56 42.56 0 0 1 28.431 32.943 A 48.209 48.209 0 0 1 28.55 31.9 A 84.346 84.346 0 0 1 29.277 27.153 A 76.665 76.665 0 0 1 29.4 26.5 A 11.286 11.286 0 0 1 29.846 23.276 A 9.738 9.738 0 0 1 30.85 21 Q 32.3 18.6 34.2 18.6 A 4.166 4.166 0 0 1 34.657 18.623 Q 35.368 18.702 35.6 19.05 Q 35.899 19.499 36.596 19.998 A 7.458 7.458 0 0 0 36.6 20 Q 37.9 20.9 39.5 21.3 Q 41.1 21.7 42.65 22.05 Q 44.2 22.4 45.65 22.9 Q 47.1 23.4 48.2 24.5 A 9.284 9.284 0 0 1 49.262 25.783 A 12.3 12.3 0 0 1 50 27 Q 50.8 28.5 51.4 30 Q 52 31.5 52.35 32.8 Q 52.619 33.8 52.681 34.386 A 3.011 3.011 0 0 1 52.7 34.7 A 9.057 9.057 0 0 1 52.611 35.096 Q 52.552 35.335 52.474 35.602 A 16.667 16.667 0 0 1 52.4 35.85 Q 52.213 36.457 52.027 36.933 A 10.68 10.68 0 0 1 52 37 Q 51.6 38.4 51.45 39.6 A 22.321 22.321 0 0 1 51.223 41.041 A 18.816 18.816 0 0 1 51.05 41.85 Q 50.8 42.9 50.3 43.8 Q 49.815 44.674 48.858 45.453 A 8.311 8.311 0 0 1 48.8 45.5 Q 47.7 46.3 46.6 47.05 A 11.34 11.34 0 0 0 45.135 48.247 A 13.463 13.463 0 0 0 44.5 48.9 A 8.296 8.296 0 0 0 45.51 51.096 A 7.337 7.337 0 0 0 46.45 52.25 A 9.132 9.132 0 0 1 47.757 53.924 Q 48.246 54.716 48.647 55.672 A 15.136 15.136 0 0 1 48.7 55.8 A 26.056 26.056 0 0 0 49.905 57.491 Q 50.894 58.775 52.2 60.2 Q 54.4 62.6 56.65 64.8 A 148.08 148.08 0 0 0 58.267 66.359 Q 59.073 67.123 59.802 67.788 A 79.348 79.348 0 0 0 60.65 68.55 Q 62.4 70.1 62.7 70.3 Q 63.521 71.121 64.134 71.443 A 2.543 2.543 0 0 0 64.25 71.5 Q 64.842 71.773 64.895 72.875 A 4.684 4.684 0 0 1 64.9 73.1 A 3.686 3.686 0 0 1 63.692 75.85 A 5.256 5.256 0 0 1 63.35 76.15 Q 61.8 77.4 59.3 77.4 Q 58.796 77.4 58.046 76.871 A 6.782 6.782 0 0 1 57.75 76.65 A 20.279 20.279 0 0 1 56.665 75.727 A 25.606 25.606 0 0 1 55.8 74.9 L 53.85 72.95 Q 52.9 72 52.5 71.5 A 121.571 121.571 0 0 1 48.753 67.677 Q 46.522 65.294 44.75 63.1 A 90.528 90.528 0 0 1 40.49 57.359 A 106.22 106.22 0 0 1 38.6 54.5 Q 38.1 53.7 37.45 52.75 Q 36.8 51.8 36 51.1 Q 35.6 51.8 35.6 52.6 Q 35.6 55.8 36.05 59.75 A 75.017 75.017 0 0 1 36.384 63.457 Q 36.498 65.247 36.5 66.849 A 45.527 45.527 0 0 1 36.5 66.9 A 5.414 5.414 0 0 1 36.491 67.23 Q 36.481 67.38 36.463 67.513 A 2.995 2.995 0 0 1 36.45 67.6 A 2.974 2.974 0 0 0 36.424 67.807 Q 36.4 68.056 36.4 68.4 A 3.831 3.831 0 0 0 36.664 69.778 A 4.704 4.704 0 0 0 36.85 70.2 A 4.334 4.334 0 0 1 37.214 71.213 A 3.675 3.675 0 0 1 37.3 72 A 2.391 2.391 0 0 1 37.216 72.65 A 1.803 1.803 0 0 1 36.75 73.45 A 4.496 4.496 0 0 1 35.543 74.306 A 5.099 5.099 0 0 1 35.45 74.35 Q 34.7 74.7 33.9 74.8 A 15.021 15.021 0 0 1 33.328 74.861 Q 33.045 74.885 32.792 74.895 A 8.079 8.079 0 0 1 32.5 74.9 A 2.434 2.434 0 0 1 30.489 73.929 A 3.895 3.895 0 0 1 30 73.1 Q 29.2 71.3 28.85 68.6 A 42.012 42.012 0 0 1 28.549 65.069 A 51.059 51.059 0 0 1 28.5 62.8 L 28.5 57.1 A 11.789 11.789 0 0 0 28.287 56.088 A 10.711 10.711 0 0 0 28.25 55.95 A 4.332 4.332 0 0 1 28.125 55.315 A 3.562 3.562 0 0 1 28.1 54.9 A 8.979 8.979 0 0 1 28.126 54.207 A 7.738 7.738 0 0 1 28.15 53.95 Q 28.2 53.5 28.2 53 A 29.889 29.889 0 0 0 28.153 51.303 A 27.523 27.523 0 0 0 28.15 51.25 A 29.734 29.734 0 0 1 28.1 49.556 A 32.334 32.334 0 0 1 28.1 49.5 Q 28.1 47.1 28.15 44.75 Q 28.2 42.4 28.2 40 Z M 40.163 43.238 A 19.276 19.276 0 0 0 38.2 43.9 A 22.269 22.269 0 0 0 37.818 44.057 A 26.484 26.484 0 0 0 37.15 44.35 Q 36.6 44.6 36 44.6 Q 35.6 43.9 35.6 42.9 Q 35.6 42.1 35.75 41.25 Q 35.9 40.4 35.9 39.5 A 57.666 57.666 0 0 1 35.85 38.923 A 49.831 49.831 0 0 1 35.75 37.4 Q 35.7 36.4 35.7 35.3 A 21.648 21.648 0 0 1 35.701 35.147 Q 35.705 34.479 35.75 33.45 Q 35.8 32.3 36 31.15 Q 36.103 30.557 36.246 30.044 A 7.961 7.961 0 0 1 36.55 29.15 Q 36.655 28.894 36.792 28.716 A 0.977 0.977 0 0 1 37.6 28.3 A 11.09 11.09 0 0 1 38.102 28.311 Q 41.501 28.465 42.9 30.75 A 9.829 9.829 0 0 1 44.048 33.503 A 12.255 12.255 0 0 1 44.4 36.5 A 18.651 18.651 0 0 1 44.399 36.701 Q 44.383 38.147 44.141 39.178 A 5.372 5.372 0 0 1 43.8 40.2 A 7.676 7.676 0 0 1 43.747 40.313 Q 43.16 41.531 42.3 42.2 Q 41.4 42.9 40.3 43.2 A 21.044 21.044 0 0 0 40.163 43.238 Z"
              vector-effect="non-scaling-stroke"/>
        </svg>