<svg xmlns="http://www.w3.org/2000/svg" viewBox="0 0 387.4 387.3"><path d="M194 387.3A193.6 193.6 0 0 1 52.7 60.5 192.3 192.3 0 0 1 188.4.1a193.1 193.1 0 0 1 198.8 185.4 192.3 192.3 0 0 1-53.1 141.7 192.7 192.7 0 0 1-140 60.1Z"/><path fill="#ffb800" d="M376.4 186A182.1 182.1 0 0 0 188.6 10.9 181.8 181.8 0 0 0 10.9 199.4 182.9 182.9 0 0 0 194 376.6h1a182 182 0 0 0 131.4-56.9c34.3-36 52.1-83.5 50.1-133.7Zm-140-83.6c1.3-4.4 3.3-8.5 6-12.2 5.9-8.2 14.3-8.1 20 .1 4.1 6 5.8 12.7 7.2 19.6a126.5 126.5 0 0 1-3.4 60 36.9 36.9 0 0 1-7 12.8c-5.5 6.2-12.6 6.1-17.8-.3a40.4 40.4 0 0 1-7.6-18.2 126.7 126.7 0 0 1 2.6-61.8Zm-118.3-.6c1.5-4 3.3-8 6.1-11.2 5.7-6.7 13.3-6.5 18.5.5 4.6 6 6.6 13.2 7.8 20.5 3.4 21 3 41.6-4.1 61.7a31.2 31.2 0 0 1-6.9 11.7c-5 5.1-11.3 5.1-16.3 0a31.8 31.8 0 0 1-6.9-13.2c-3.2-10.4-4-21-4.1-32.5a114 114 0 0 1 6-37.5Zm227.4 90.8-.2.1c-2 2.5-4.5 5.2-8.3 6.3-.9.3-1.1.5-1.3 1.8a155 155 0 0 1-40.1 88.4 137.7 137.7 0 0 1-104.7 47.4c-20.6 0-40.6-5-59.5-14.7a151 151 0 0 1-75.2-89.1c-2.8-8.1-5-16.8-6.5-26.4-.2-1.2-.5-1.7-1.4-2.1a16.7 16.7 0 0 1-6.2-5.5c-.5-.6-1.6-2.2-.6-3.8.4-.6 1.1-1.3 2.4-1.3h1l.2.1 2.4.3a73.7 73.7 0 0 0 5.4.4c3.8 0 7.6-1 11.8-3l.3-.1a5 5 0 0 1 2.5-.8c.8 0 1.6.3 2.3 1 1.8 1.8.8 3.8.3 4.9a14.5 14.5 0 0 1-8 7.9c-.6.2-.6.2-.5 1 7.7 40.5 26 71.2 55.7 94a122.2 122.2 0 0 0 74.7 25.4 126 126 0 0 0 83.4-32.1 148.6 148.6 0 0 0 46.4-76c1.7-6.2 2.9-11.2 3.8-16 .3-1.4.1-1.7-.9-2.1a20.8 20.8 0 0 1-6.6-5.3c-.5-.7-2-2.4-.7-4.4.7-1 1.7-1.6 3-1.6.5 0 1.1.1 1.8.4a26.4 26.4 0 0 0 19.4 0c.7-.2 1.3-.4 1.9-.4 1 0 2 .4 2.5 1.2 1.4 1.8 0 3.4-.5 4Z"/></svg>