<svg width="280" height="73.201" viewBox="0 0 280 73.201" xmlns="http://www.w3.org/2000/svg"><g fill-rule="nonzero" fill="#333333" ><path d="M 185.9 50.9 L 185.9 21.6 L 199.4 21.6 L 199.4 49.5 A 23.403 23.403 0 0 0 199.625 52.857 Q 199.875 54.574 200.401 55.965 A 9.629 9.629 0 0 0 201.95 58.7 A 8.047 8.047 0 0 0 206.014 61.308 Q 207.371 61.707 209.016 61.782 A 17.092 17.092 0 0 0 209.8 61.8 A 12.656 12.656 0 0 0 213.176 61.366 A 10.602 10.602 0 0 0 215.8 60.25 Q 218.4 58.7 219.95 55.75 Q 221.355 53.077 221.487 49.294 A 22.831 22.831 0 0 0 221.5 48.5 L 221.5 21.6 L 234.9 21.6 L 234.9 72 L 223.1 72 L 222 63.8 Q 219.8 68.1 215.5 70.65 A 17.994 17.994 0 0 1 209.168 72.899 A 23.904 23.904 0 0 1 205.3 73.2 A 24.416 24.416 0 0 1 200.298 72.712 A 17.956 17.956 0 0 1 194.85 70.65 A 16.195 16.195 0 0 1 188.689 64.131 A 20.032 20.032 0 0 1 188.2 63.15 A 22.991 22.991 0 0 1 186.554 58.017 Q 186.064 55.598 185.941 52.804 A 43.45 43.45 0 0 1 185.9 50.9 Z M 73.5 65.5 L 72 72 L 60 72 L 60 0 L 73.5 0 L 73.5 28.6 Q 75.9 25.1 79.85 22.75 A 15.936 15.936 0 0 1 84.588 20.919 Q 86.929 20.4 89.7 20.4 Q 96.7 20.4 102.15 23.85 Q 107.6 27.3 110.75 33.25 A 27.049 27.049 0 0 1 113.637 42.595 A 34.273 34.273 0 0 1 113.9 46.9 A 30.691 30.691 0 0 1 112.819 55.174 A 26.54 26.54 0 0 1 110.75 60.4 A 24.711 24.711 0 0 1 105.06 67.682 A 23.381 23.381 0 0 1 102.2 69.8 A 22.202 22.202 0 0 1 91.949 73.117 A 27.377 27.377 0 0 1 89.8 73.2 A 26.033 26.033 0 0 1 86.222 72.965 A 19.348 19.348 0 0 1 82.85 72.2 Q 79.8 71.2 77.45 69.45 A 18.939 18.939 0 0 1 74.236 66.441 A 17.183 17.183 0 0 1 73.5 65.5 Z M 86.6 61.4 A 14.662 14.662 0 0 0 90.569 60.882 A 12.315 12.315 0 0 0 93.65 59.55 Q 96.7 57.7 98.4 54.45 A 14.771 14.771 0 0 0 99.897 49.748 A 19.278 19.278 0 0 0 100.1 46.9 A 18.555 18.555 0 0 0 99.628 42.629 A 15.1 15.1 0 0 0 98.4 39.25 A 12.84 12.84 0 0 0 95.091 35.069 A 12.443 12.443 0 0 0 93.65 34.05 A 12.782 12.782 0 0 0 88.312 32.289 A 16.053 16.053 0 0 0 86.6 32.2 A 14.039 14.039 0 0 0 82.375 32.818 A 12.383 12.383 0 0 0 79.65 34.05 Q 76.6 35.9 74.85 39.2 A 14.932 14.932 0 0 0 73.271 44.21 A 19.051 19.051 0 0 0 73.1 46.8 A 18.03 18.03 0 0 0 73.594 51.101 A 14.818 14.818 0 0 0 74.85 54.45 A 13.077 13.077 0 0 0 77.707 58.179 A 12.177 12.177 0 0 0 79.65 59.6 Q 82.7 61.4 86.6 61.4 Z M 21.4 42.4 L 33.9 42.4 A 22.605 22.605 0 0 0 33.761 39.807 Q 33.611 38.511 33.3 37.416 A 11.105 11.105 0 0 0 32.9 36.25 Q 31.9 33.8 29.8 32.6 Q 28.158 31.662 25.659 31.457 A 17.901 17.901 0 0 0 24.2 31.4 A 14.594 14.594 0 0 0 21.199 31.694 A 10.577 10.577 0 0 0 17.75 33.05 Q 15.1 34.7 14.5 38.1 L 1.4 38.1 A 18.73 18.73 0 0 1 2.862 32.27 A 16.719 16.719 0 0 1 4.95 28.75 A 19.564 19.564 0 0 1 11.227 23.487 A 23.888 23.888 0 0 1 13.05 22.6 Q 18.1 20.4 24.3 20.4 Q 31.26 20.4 36.394 22.706 A 22.133 22.133 0 0 1 36.6 22.8 Q 41.8 25.2 44.6 29.7 A 17.875 17.875 0 0 1 46.865 35.427 Q 47.367 37.757 47.398 40.441 A 30.71 30.71 0 0 1 47.4 40.8 L 47.4 72 L 36 72 L 34.5 64.3 Q 33.4 66.3 31.9 67.9 A 16.053 16.053 0 0 1 28.649 70.548 A 17.966 17.966 0 0 1 28.4 70.7 Q 26.4 71.9 23.9 72.55 A 20.035 20.035 0 0 1 20.624 73.105 A 25.201 25.201 0 0 1 18.4 73.2 A 31.875 31.875 0 0 1 14.028 72.918 Q 11.764 72.604 9.876 71.941 A 16.167 16.167 0 0 1 8 71.15 A 15.868 15.868 0 0 1 4.653 68.942 A 12.51 12.51 0 0 1 1.95 65.65 A 15.214 15.214 0 0 1 0.003 58.278 A 17.932 17.932 0 0 1 0 58 A 15.255 15.255 0 0 1 0.724 53.235 A 13.448 13.448 0 0 1 2.35 49.9 A 13.742 13.742 0 0 1 6.106 46.191 A 19.244 19.244 0 0 1 9.45 44.4 A 23.116 23.116 0 0 1 13.894 43.068 Q 16.089 42.63 18.636 42.479 A 46.811 46.811 0 0 1 21.4 42.4 Z M 33.3 50.8 L 33.3 50.7 L 23 50.7 Q 20.798 50.7 19.177 51.078 A 9.309 9.309 0 0 0 17.95 51.45 A 7.275 7.275 0 0 0 16.599 52.127 Q 15.756 52.674 15.226 53.415 A 4.497 4.497 0 0 0 15.1 53.6 A 5.694 5.694 0 0 0 14.211 56.411 A 6.95 6.95 0 0 0 14.2 56.8 A 7.302 7.302 0 0 0 14.336 58.249 Q 14.55 59.305 15.1 60.1 A 5.305 5.305 0 0 0 16.75 61.625 A 6.983 6.983 0 0 0 17.7 62.1 A 9.116 9.116 0 0 0 19.888 62.683 A 12.085 12.085 0 0 0 21.6 62.8 A 12.183 12.183 0 0 0 24.208 62.532 A 9.843 9.843 0 0 0 26.25 61.85 Q 28.3 60.9 29.8 59.25 Q 31.3 57.6 32.15 55.45 A 18.179 18.179 0 0 0 33.169 51.725 A 20.918 20.918 0 0 0 33.3 50.8 Z M 279.9 72 L 270.8 72 A 28.75 28.75 0 0 1 266.275 71.661 Q 263.711 71.252 261.55 70.35 Q 257.6 68.7 255.4 64.85 Q 253.787 62.026 253.357 57.67 A 34.356 34.356 0 0 1 253.2 54.3 L 253.2 32.9 L 244.6 32.9 L 244.6 21.6 L 253.2 21.6 L 254.7 7.9 L 266.7 7.9 L 266.7 21.6 L 280 21.6 L 280 32.9 L 266.7 32.9 L 266.7 54.5 A 12.079 12.079 0 0 0 266.8 56.114 Q 267.042 57.904 267.873 58.87 A 3.163 3.163 0 0 0 268.2 59.2 A 4.27 4.27 0 0 0 269.48 59.94 Q 270.707 60.411 272.576 60.486 A 18.189 18.189 0 0 0 273.3 60.5 L 279.9 60.5 L 279.9 72 Z M 140.867 71.891 A 23.995 23.995 0 0 1 136.35 69.85 Q 130.6 66.5 127.25 60.55 Q 123.9 54.6 123.9 46.9 Q 123.9 39 127.25 33.05 Q 130.6 27.1 136.4 23.75 A 25.194 25.194 0 0 1 148.063 20.429 A 30.135 30.135 0 0 1 149.4 20.4 A 27.191 27.191 0 0 1 157.423 21.55 A 23.877 23.877 0 0 1 162.45 23.75 Q 168.2 27.1 171.55 33.05 A 25.976 25.976 0 0 1 174.636 42.559 A 33.027 33.027 0 0 1 174.9 46.8 Q 174.9 54.6 171.55 60.55 Q 168.2 66.5 162.4 69.85 A 25.168 25.168 0 0 1 151.324 73.134 A 30.512 30.512 0 0 1 149.3 73.2 A 26.552 26.552 0 0 1 140.867 71.891 Z M 149.3 61.5 A 12.321 12.321 0 0 0 152.935 60.98 A 10.773 10.773 0 0 0 155.35 59.9 A 10.074 10.074 0 0 0 158.415 56.983 A 13.49 13.49 0 0 0 159.55 55 Q 160.879 52.173 161.069 48.17 A 28.882 28.882 0 0 0 161.1 46.8 A 25.632 25.632 0 0 0 160.883 43.357 Q 160.638 41.559 160.121 40.052 A 13.254 13.254 0 0 0 159.55 38.65 A 12.945 12.945 0 0 0 157.823 35.916 A 10.291 10.291 0 0 0 155.35 33.75 A 10.984 10.984 0 0 0 149.606 32.102 A 13.081 13.081 0 0 0 149.4 32.1 Q 146.2 32.1 143.5 33.75 Q 140.8 35.4 139.25 38.65 A 14.68 14.68 0 0 0 138.164 41.934 Q 137.845 43.437 137.746 45.173 A 28.416 28.416 0 0 0 137.7 46.8 Q 137.7 50.743 138.704 53.65 A 13.657 13.657 0 0 0 139.25 55 A 12.904 12.904 0 0 0 140.849 57.602 A 9.854 9.854 0 0 0 143.45 59.9 Q 146.1 61.5 149.3 61.5 Z" vector-effect="non-scaling-stroke"/></g></svg>