<svg viewBox="0 0 218.401 72.402" xmlns="http://www.w3.org/2000/svg"><g fill-rule="nonzero"  fill="#FFF5E1"><path d="M 133.9 24.101 A 35.649 35.649 0 0 0 132.829 19.623 A 26.285 26.285 0 0 0 123.8 6.301 A 29 29 0 0 0 112.135 0.943 A 41.923 41.923 0 0 0 103 0.001 A 41.637 41.637 0 0 0 95.982 0.57 A 31.027 31.027 0 0 0 84.95 4.601 Q 77.4 9.201 73.35 17.401 A 37.662 37.662 0 0 0 70.311 26.235 A 48.024 48.024 0 0 0 69.3 36.301 A 50.006 50.006 0 0 0 69.823 43.662 A 38.307 38.307 0 0 0 73.35 55.151 Q 77.4 63.301 84.95 67.851 A 30.671 30.671 0 0 0 94.377 71.53 A 40.764 40.764 0 0 0 103 72.401 A 51.678 51.678 0 0 0 103.316 72.4 Q 108.195 72.37 112.39 71.417 A 29.125 29.125 0 0 0 123.8 66.201 Q 131.9 60.001 133.9 49.101 L 119.1 49.101 A 17.499 17.499 0 0 1 118.856 49.995 A 13.639 13.639 0 0 1 113.7 57.351 Q 111.073 59.241 107.38 59.92 A 24.791 24.791 0 0 1 102.9 60.301 A 23.386 23.386 0 0 1 99.196 60.018 A 17.688 17.688 0 0 1 92.25 57.401 A 17.367 17.367 0 0 1 88.501 54.101 A 20.436 20.436 0 0 1 85.4 49.101 Q 83 43.701 83 36.301 A 45.329 45.329 0 0 1 83.015 35.142 Q 83.188 28.383 85.4 23.451 Q 87.8 18.101 92.25 15.151 A 17.081 17.081 0 0 1 97.556 12.828 A 21.807 21.807 0 0 1 102.9 12.201 A 27.513 27.513 0 0 1 103.722 12.213 Q 109.858 12.397 113.75 15.351 A 13.947 13.947 0 0 1 117.314 19.32 A 16.47 16.47 0 0 1 119.2 24.101 L 133.9 24.101 Z M 14.2 71.201 L 0 71.201 L 25.6 1.201 L 40.9 1.201 L 66.4 71.201 L 52.1 71.201 L 33.2 16.601 L 14.2 71.201 Z M 174.4 71.201 L 161 71.201 L 161 12.101 L 140.5 12.101 L 140.5 1.201 L 194.8 1.201 L 194.8 12.101 L 174.4 12.101 L 174.4 71.201 Z M 54 55.301 L 11.3 55.301 L 14.9 44.801 L 50.5 44.801 L 54 55.301 Z M 207.561 34.785 A 7.593 7.593 0 0 1 204.1 32.851 Q 201.8 30.601 201.8 27.301 A 7.784 7.784 0 0 1 202.468 24.048 A 7.588 7.588 0 0 1 204.1 21.751 A 7.741 7.741 0 0 1 208.261 19.664 A 11.025 11.025 0 0 1 210.2 19.501 A 9.407 9.407 0 0 1 213.006 19.901 A 7.589 7.589 0 0 1 216.1 21.751 Q 218.4 24.001 218.4 27.301 A 7.784 7.784 0 0 1 217.732 30.554 A 7.588 7.588 0 0 1 216.1 32.851 A 7.804 7.804 0 0 1 211.32 35.043 A 10.597 10.597 0 0 1 210.2 35.101 A 10.443 10.443 0 0 1 207.561 34.785 Z M 207.561 71.385 A 7.593 7.593 0 0 1 204.1 69.451 Q 201.8 67.201 201.8 63.901 A 7.784 7.784 0 0 1 202.468 60.648 A 7.588 7.588 0 0 1 204.1 58.351 A 7.741 7.741 0 0 1 208.261 56.264 A 11.025 11.025 0 0 1 210.2 56.101 A 9.407 9.407 0 0 1 213.006 56.501 A 7.589 7.589 0 0 1 216.1 58.351 Q 218.4 60.601 218.4 63.901 A 7.784 7.784 0 0 1 217.732 67.154 A 7.588 7.588 0 0 1 216.1 69.451 A 7.804 7.804 0 0 1 211.32 71.643 A 10.597 10.597 0 0 1 210.2 71.701 A 10.443 10.443 0 0 1 207.561 71.385 Z" vector-effect="non-scaling-stroke"/></g></svg>