<svg viewBox="0 0 86.701 87.702" xmlns="http://www.w3.org/2000/svg"><g  fill-rule="evenodd" fill="#fff5e1"><path d="M 38.401 38.301 L 51.101 37.301 L 51.101 36.601 Q 51.101 29.801 43.401 29.801 Q 39.001 29.801 36.651 31.401 A 5.148 5.148 0 0 0 34.359 35.157 A 7.323 7.323 0 0 0 34.301 36.101 L 22.701 36.101 A 16.329 16.329 0 0 1 23.781 30.056 A 14.822 14.822 0 0 1 28.551 23.801 A 20.423 20.423 0 0 1 36.101 20.145 Q 39.029 19.378 42.48 19.234 A 38.9 38.9 0 0 1 44.101 19.201 Q 51.61 19.201 56.502 22.221 A 16.224 16.224 0 0 1 59.351 24.451 A 16.942 16.942 0 0 1 63.748 32.042 Q 64.701 35.366 64.701 39.501 L 64.701 52.701 A 9.734 9.734 0 0 0 64.882 54.672 Q 65.503 57.659 68.243 58.044 A 6.166 6.166 0 0 0 69.101 58.101 A 4.869 4.869 0 0 0 72.606 56.587 Q 73.32 55.885 73.942 54.858 A 14.234 14.234 0 0 0 74.751 53.301 Q 76.901 48.501 76.901 40.801 A 34.628 34.628 0 0 0 75.867 32.218 A 30.385 30.385 0 0 0 74.501 28.101 Q 72.101 22.301 67.651 18.051 Q 63.201 13.801 57.151 11.501 A 35.501 35.501 0 0 0 47.429 9.344 A 42.552 42.552 0 0 0 43.901 9.201 A 37.622 37.622 0 0 0 34.683 10.299 A 33.142 33.142 0 0 0 30.251 11.751 Q 24.001 14.301 19.401 19.001 Q 14.801 23.701 12.301 30.001 A 35.799 35.799 0 0 0 9.925 40.52 A 42.742 42.742 0 0 0 9.801 43.801 A 38.603 38.603 0 0 0 10.952 53.36 A 34.054 34.054 0 0 0 12.351 57.651 Q 14.901 64.001 19.501 68.701 Q 24.101 73.401 30.301 75.951 A 34.229 34.229 0 0 0 40.721 78.379 A 40.807 40.807 0 0 0 43.901 78.501 A 33.764 33.764 0 0 0 58.372 75.157 A 43.555 43.555 0 0 0 63.501 72.301 L 67.601 80.801 Q 56.901 87.701 43.901 87.701 Q 34.401 87.701 26.401 84.451 Q 18.401 81.201 12.451 75.251 Q 6.501 69.301 3.251 61.301 A 44.668 44.668 0 0 1 0.135 47.598 A 53.022 53.022 0 0 1 0.001 43.801 A 47.685 47.685 0 0 1 1.355 32.265 A 41.524 41.524 0 0 1 3.301 26.351 Q 6.601 18.401 12.501 12.451 Q 18.401 6.501 26.451 3.251 A 45.332 45.332 0 0 1 41.284 0.065 A 52.799 52.799 0 0 1 43.901 0.001 A 49.55 49.55 0 0 1 54.94 1.192 A 42.64 42.64 0 0 1 61.001 3.051 Q 68.801 6.101 74.551 11.601 Q 80.301 17.101 83.501 24.551 Q 86.701 32.001 86.701 40.801 Q 86.701 48.901 84.301 54.801 A 23.364 23.364 0 0 1 81.6 59.739 A 18.339 18.339 0 0 1 77.451 63.901 Q 73.001 67.101 66.801 67.101 A 21.143 21.143 0 0 1 61.988 66.594 Q 55.501 65.076 53.401 59.001 A 8.704 8.704 0 0 1 51.326 62.227 Q 50.385 63.179 49.096 64.015 A 18.201 18.201 0 0 1 47.851 64.751 A 19.733 19.733 0 0 1 39.186 67.08 A 23.326 23.326 0 0 1 38.201 67.101 A 25.488 25.488 0 0 1 33.344 66.666 Q 30.511 66.116 28.294 64.869 A 13.585 13.585 0 0 1 26.001 63.251 A 12.618 12.618 0 0 1 21.812 55.44 A 18.33 18.33 0 0 1 21.601 52.601 A 13.956 13.956 0 0 1 22.434 47.693 A 12.357 12.357 0 0 1 25.801 42.801 Q 30.001 39.001 38.401 38.301 Z M 51.201 49.001 L 51.201 46.601 L 44.101 47.201 Q 39.401 47.601 37.601 48.701 A 3.744 3.744 0 0 0 36.362 49.886 Q 35.906 50.606 35.82 51.552 A 4.983 4.983 0 0 0 35.801 52.001 A 6.38 6.38 0 0 0 35.937 53.366 Q 36.129 54.242 36.592 54.883 A 3.5 3.5 0 0 0 37.351 55.651 A 4.906 4.906 0 0 0 38.728 56.346 Q 40.088 56.801 42.101 56.801 A 14.559 14.559 0 0 0 44.718 56.58 Q 46.185 56.312 47.349 55.717 A 7.422 7.422 0 0 0 48.801 54.751 A 6.686 6.686 0 0 0 51.069 50.644 A 9.817 9.817 0 0 0 51.201 49.001 Z" vector-effect="non-scaling-stroke"/></g></svg>