<svg xmlns="http://www.w3.org/2000/svg" viewBox="0 0 378.9 65.3"><g fill-rule="evenodd" fill="#fff5e1"><path d="M 136.801 64.1 L 123.301 64.1 L 123.301 13.7 L 135.201 13.7 L 136.201 21.9 Q 138.501 17.7 142.751 15.1 Q 147.001 12.5 152.901 12.5 A 25.333 25.333 0 0 1 157.689 12.929 Q 160.642 13.497 163.016 14.819 A 15.596 15.596 0 0 1 163.501 15.1 A 16.174 16.174 0 0 1 169.446 21.469 A 20.133 20.133 0 0 1 170.051 22.7 A 23.822 23.822 0 0 1 171.666 27.893 Q 172.142 30.315 172.261 33.102 A 44.487 44.487 0 0 1 172.301 35 L 172.301 64.1 L 158.901 64.1 L 158.901 36.3 Q 158.901 30.3 156.351 27.1 A 8.078 8.078 0 0 0 152.089 24.35 Q 150.738 23.97 149.112 23.911 A 16.776 16.776 0 0 0 148.501 23.9 A 12.321 12.321 0 0 0 144.866 24.42 A 10.773 10.773 0 0 0 142.451 25.5 A 10.899 10.899 0 0 0 138.499 29.675 A 13.123 13.123 0 0 0 138.301 30.05 A 13.21 13.21 0 0 0 137.136 33.509 Q 136.801 35.215 136.801 37.2 L 136.801 64.1 Z M 50.701 31.6 L 36.401 31.6 Q 35.501 28.1 32.651 26.1 A 11.007 11.007 0 0 0 27.442 24.183 A 14.065 14.065 0 0 0 25.901 24.1 A 11.943 11.943 0 0 0 21.83 24.779 A 10.949 10.949 0 0 0 19.651 25.85 Q 16.901 27.6 15.351 30.95 A 16.112 16.112 0 0 0 14.141 34.862 Q 13.801 36.744 13.801 38.9 A 23.307 23.307 0 0 0 14.019 42.164 A 17.446 17.446 0 0 0 14.701 45.15 A 15.821 15.821 0 0 0 15.924 47.973 A 12.879 12.879 0 0 0 17.201 49.85 Q 18.801 51.8 21.051 52.8 Q 23.301 53.8 25.901 53.8 A 13.045 13.045 0 0 0 28.902 53.466 A 11.141 11.141 0 0 0 30.651 52.9 Q 32.801 52 34.301 50.35 A 8.917 8.917 0 0 0 36.12 47.244 A 10.925 10.925 0 0 0 36.401 46.3 L 50.701 46.3 A 24.063 24.063 0 0 1 47.281 54.754 A 22.358 22.358 0 0 1 42.251 60.15 A 24.431 24.431 0 0 1 30.339 65.017 A 32.294 32.294 0 0 1 26.001 65.3 A 28.953 28.953 0 0 1 18.196 64.283 A 24.575 24.575 0 0 1 12.501 61.9 Q 6.601 58.5 3.301 52.6 A 25.939 25.939 0 0 1 0.207 42.794 A 32.323 32.323 0 0 1 0.001 39.1 Q 0.001 31.3 3.301 25.35 Q 6.601 19.4 12.501 15.95 Q 18.401 12.5 26.001 12.5 A 30.521 30.521 0 0 1 33.829 13.459 A 23.551 23.551 0 0 1 42.301 17.6 A 22.262 22.262 0 0 1 50.249 29.699 A 28.778 28.778 0 0 1 50.701 31.6 Z M 336.001 31.6 L 321.701 31.6 Q 320.801 28.1 317.951 26.1 A 11.007 11.007 0 0 0 312.742 24.183 A 14.065 14.065 0 0 0 311.201 24.1 A 11.943 11.943 0 0 0 307.13 24.779 A 10.949 10.949 0 0 0 304.951 25.85 Q 302.201 27.6 300.651 30.95 A 16.112 16.112 0 0 0 299.441 34.862 Q 299.101 36.744 299.101 38.9 A 23.307 23.307 0 0 0 299.319 42.164 A 17.446 17.446 0 0 0 300.001 45.15 A 15.821 15.821 0 0 0 301.224 47.973 A 12.879 12.879 0 0 0 302.501 49.85 Q 304.101 51.8 306.351 52.8 Q 308.601 53.8 311.201 53.8 A 13.045 13.045 0 0 0 314.202 53.466 A 11.141 11.141 0 0 0 315.951 52.9 Q 318.101 52 319.601 50.35 A 8.917 8.917 0 0 0 321.42 47.244 A 10.925 10.925 0 0 0 321.701 46.3 L 336.001 46.3 A 24.063 24.063 0 0 1 332.581 54.754 A 22.358 22.358 0 0 1 327.551 60.15 A 24.431 24.431 0 0 1 315.639 65.017 A 32.294 32.294 0 0 1 311.301 65.3 A 28.953 28.953 0 0 1 303.496 64.283 A 24.575 24.575 0 0 1 297.801 61.9 Q 291.901 58.5 288.601 52.6 A 25.939 25.939 0 0 1 285.507 42.794 A 32.323 32.323 0 0 1 285.301 39.1 Q 285.301 31.3 288.601 25.35 Q 291.901 19.4 297.801 15.95 Q 303.701 12.5 311.301 12.5 A 30.521 30.521 0 0 1 319.129 13.459 A 23.551 23.551 0 0 1 327.601 17.6 A 22.262 22.262 0 0 1 335.549 29.699 A 28.778 28.778 0 0 1 336.001 31.6 Z M 248.301 34.5 L 260.801 34.5 A 22.605 22.605 0 0 0 260.661 31.907 Q 260.511 30.611 260.2 29.516 A 11.105 11.105 0 0 0 259.801 28.35 Q 258.801 25.9 256.701 24.7 Q 255.058 23.762 252.56 23.557 A 17.901 17.901 0 0 0 251.101 23.5 A 14.594 14.594 0 0 0 248.099 23.794 A 10.577 10.577 0 0 0 244.651 25.15 Q 242.001 26.8 241.401 30.2 L 228.301 30.2 A 18.73 18.73 0 0 1 229.762 24.37 A 16.719 16.719 0 0 1 231.851 20.85 A 19.564 19.564 0 0 1 238.127 15.587 A 23.888 23.888 0 0 1 239.951 14.7 Q 245.001 12.5 251.201 12.5 Q 258.16 12.5 263.294 14.806 A 22.133 22.133 0 0 1 263.501 14.9 Q 268.701 17.3 271.501 21.8 A 17.875 17.875 0 0 1 273.765 27.527 Q 274.267 29.857 274.298 32.541 A 30.71 30.71 0 0 1 274.301 32.9 L 274.301 64.1 L 262.901 64.1 L 261.401 56.4 Q 260.301 58.4 258.801 60 A 16.053 16.053 0 0 1 255.549 62.648 A 17.966 17.966 0 0 1 255.301 62.8 Q 253.301 64 250.801 64.65 A 20.035 20.035 0 0 1 247.524 65.205 A 25.201 25.201 0 0 1 245.301 65.3 A 31.875 31.875 0 0 1 240.928 65.018 Q 238.665 64.704 236.776 64.041 A 16.167 16.167 0 0 1 234.901 63.25 A 15.868 15.868 0 0 1 231.553 61.042 A 12.51 12.51 0 0 1 228.851 57.75 A 15.214 15.214 0 0 1 226.903 50.378 A 17.932 17.932 0 0 1 226.901 50.1 A 15.255 15.255 0 0 1 227.624 45.335 A 13.448 13.448 0 0 1 229.251 42 A 13.742 13.742 0 0 1 233.006 38.291 A 19.244 19.244 0 0 1 236.351 36.5 A 23.116 23.116 0 0 1 240.794 35.168 Q 242.989 34.73 245.536 34.579 A 46.811 46.811 0 0 1 248.301 34.5 Z M 216.801 64.1 L 207.701 64.1 A 28.75 28.75 0 0 1 203.175 63.761 Q 200.611 63.352 198.451 62.45 Q 194.501 60.8 192.301 56.95 Q 190.687 54.126 190.257 49.77 A 34.356 34.356 0 0 1 190.101 46.4 L 190.101 25 L 181.501 25 L 181.501 13.7 L 190.101 13.7 L 191.601 0 L 203.601 0 L 203.601 13.7 L 216.901 13.7 L 216.901 25 L 203.601 25 L 203.601 46.6 A 12.079 12.079 0 0 0 203.7 48.214 Q 203.942 50.004 204.773 50.97 A 3.163 3.163 0 0 0 205.101 51.3 A 4.27 4.27 0 0 0 206.38 52.04 Q 207.607 52.511 209.476 52.586 A 18.189 18.189 0 0 0 210.201 52.6 L 216.801 52.6 L 216.801 64.1 Z M 378.801 64.1 L 369.701 64.1 A 28.75 28.75 0 0 1 365.175 63.761 Q 362.611 63.352 360.451 62.45 Q 356.501 60.8 354.301 56.95 Q 352.687 54.126 352.257 49.77 A 34.356 34.356 0 0 1 352.101 46.4 L 352.101 25 L 343.501 25 L 343.501 13.7 L 352.101 13.7 L 353.601 0 L 365.601 0 L 365.601 13.7 L 378.901 13.7 L 378.901 25 L 365.601 25 L 365.601 46.6 A 12.079 12.079 0 0 0 365.7 48.214 Q 365.942 50.004 366.773 50.97 A 3.163 3.163 0 0 0 367.101 51.3 A 4.27 4.27 0 0 0 368.38 52.04 Q 369.607 52.511 371.476 52.586 A 18.189 18.189 0 0 0 372.201 52.6 L 378.801 52.6 L 378.801 64.1 Z M 77.667 63.991 A 26.552 26.552 0 0 0 86.101 65.3 A 30.512 30.512 0 0 0 88.124 65.234 A 25.168 25.168 0 0 0 99.201 61.95 Q 105.001 58.6 108.351 52.65 Q 111.701 46.7 111.701 38.9 A 33.027 33.027 0 0 0 111.436 34.659 A 25.976 25.976 0 0 0 108.351 25.15 Q 105.001 19.2 99.251 15.85 A 23.877 23.877 0 0 0 94.223 13.65 A 27.191 27.191 0 0 0 86.201 12.5 A 30.135 30.135 0 0 0 84.863 12.529 A 25.194 25.194 0 0 0 73.201 15.85 Q 67.401 19.2 64.051 25.15 Q 60.701 31.1 60.701 39 Q 60.701 46.7 64.051 52.65 Q 67.401 58.6 73.151 61.95 A 23.995 23.995 0 0 0 77.667 63.991 Z M 86.101 53.6 A 12.321 12.321 0 0 0 89.735 53.08 A 10.773 10.773 0 0 0 92.151 52 A 10.074 10.074 0 0 0 95.215 49.083 A 13.49 13.49 0 0 0 96.351 47.1 Q 97.679 44.273 97.869 40.27 A 28.882 28.882 0 0 0 97.901 38.9 A 25.632 25.632 0 0 0 97.683 35.457 Q 97.439 33.659 96.921 32.152 A 13.254 13.254 0 0 0 96.351 30.75 A 12.945 12.945 0 0 0 94.623 28.016 A 10.291 10.291 0 0 0 92.151 25.85 A 10.984 10.984 0 0 0 86.406 24.202 A 13.081 13.081 0 0 0 86.201 24.2 Q 83.001 24.2 80.301 25.85 Q 77.601 27.5 76.051 30.75 A 14.68 14.68 0 0 0 74.964 34.034 Q 74.645 35.537 74.546 37.273 A 28.416 28.416 0 0 0 74.501 38.9 Q 74.501 42.843 75.504 45.75 A 13.657 13.657 0 0 0 76.051 47.1 A 12.904 12.904 0 0 0 77.649 49.702 A 9.854 9.854 0 0 0 80.251 52 Q 82.901 53.6 86.101 53.6 Z M 260.201 42.9 L 260.201 42.8 L 249.901 42.8 Q 247.699 42.8 246.077 43.178 A 9.309 9.309 0 0 0 244.851 43.55 A 7.275 7.275 0 0 0 243.499 44.227 Q 242.656 44.774 242.126 45.515 A 4.497 4.497 0 0 0 242.001 45.7 A 5.694 5.694 0 0 0 241.111 48.511 A 6.95 6.95 0 0 0 241.101 48.9 A 7.302 7.302 0 0 0 241.237 50.349 Q 241.45 51.405 242.001 52.2 A 5.305 5.305 0 0 0 243.65 53.725 A 6.983 6.983 0 0 0 244.601 54.2 A 9.116 9.116 0 0 0 246.788 54.783 A 12.085 12.085 0 0 0 248.501 54.9 A 12.183 12.183 0 0 0 251.108 54.632 A 9.843 9.843 0 0 0 253.151 53.95 Q 255.201 53 256.701 51.35 Q 258.201 49.7 259.051 47.55 A 18.179 18.179 0 0 0 260.069 43.825 A 20.918 20.918 0 0 0 260.201 42.9 Z" vector-effect="non-scaling-stroke"></path></g></svg>