<svg width="108.901" height="52.802" viewBox="0 0 108.901 52.802" xmlns="http://www.w3.org/2000/svg"><g fill-rule="nonzero" fill="#333333"><path d="M 50.701 19.101 L 36.401 19.101 Q 35.501 15.601 32.651 13.601 A 11.007 11.007 0 0 0 27.442 11.683 A 14.065 14.065 0 0 0 25.901 11.601 A 11.943 11.943 0 0 0 21.83 12.28 A 10.949 10.949 0 0 0 19.651 13.351 Q 16.901 15.101 15.351 18.451 A 16.112 16.112 0 0 0 14.141 22.363 Q 13.801 24.245 13.801 26.401 A 23.307 23.307 0 0 0 14.019 29.665 A 17.446 17.446 0 0 0 14.701 32.651 A 15.821 15.821 0 0 0 15.924 35.474 A 12.879 12.879 0 0 0 17.201 37.351 Q 18.801 39.301 21.051 40.301 Q 23.301 41.301 25.901 41.301 A 13.045 13.045 0 0 0 28.902 40.967 A 11.141 11.141 0 0 0 30.651 40.401 Q 32.801 39.501 34.301 37.851 A 8.917 8.917 0 0 0 36.12 34.745 A 10.925 10.925 0 0 0 36.401 33.801 L 50.701 33.801 A 24.063 24.063 0 0 1 47.281 42.255 A 22.358 22.358 0 0 1 42.251 47.651 A 24.431 24.431 0 0 1 30.339 52.518 A 32.294 32.294 0 0 1 26.001 52.801 A 28.953 28.953 0 0 1 18.196 51.784 A 24.575 24.575 0 0 1 12.501 49.401 Q 6.601 46.001 3.301 40.101 A 25.939 25.939 0 0 1 0.207 30.295 A 32.323 32.323 0 0 1 0.001 26.601 Q 0.001 18.801 3.301 12.851 Q 6.601 6.901 12.501 3.451 Q 18.401 0.001 26.001 0.001 A 30.521 30.521 0 0 1 33.829 0.96 A 23.551 23.551 0 0 1 42.301 5.101 A 22.262 22.262 0 0 1 50.249 17.199 A 28.778 28.778 0 0 1 50.701 19.101 Z M 90.501 51.601 L 74.101 51.601 L 55.601 1.201 L 69.801 1.201 L 82.301 38.901 L 94.801 1.201 L 108.901 1.201 L 90.501 51.601 Z" vector-effect="non-scaling-stroke"/></g></svg>