<svg viewBox="0 0 324.501 72.402" xmlns="http://www.w3.org/2000/svg"><g fill-rule="nonzero" fill="#333333" ><path d="M 117.4 71.201 L 71.4 71.201 L 71.4 1.201 L 117.4 1.201 L 117.4 12.101 L 84.9 12.101 L 84.9 30.401 L 114.4 30.401 L 114.4 40.901 L 84.9 40.901 L 84.9 60.301 L 117.4 60.301 L 117.4 71.201 Z M 173.9 71.201 L 129.7 71.201 L 129.7 1.201 L 143.2 1.201 L 143.2 60.701 L 173.9 60.701 L 173.9 71.201 Z M 229.7 71.201 L 185.5 71.201 L 185.5 1.201 L 199 1.201 L 199 60.701 L 229.7 60.701 L 229.7 71.201 Z M 257.31 71.122 A 31.998 31.998 0 0 1 249.4 67.801 Q 241.6 63.201 237.2 55.051 A 36.44 36.44 0 0 1 233.23 42.639 A 46.794 46.794 0 0 1 232.8 36.201 Q 232.8 25.501 237.2 17.351 Q 241.6 9.201 249.4 4.601 Q 257.2 0.001 267.4 0.001 Q 277.7 0.001 285.5 4.601 Q 293.3 9.201 297.65 17.351 A 36.708 36.708 0 0 1 301.565 29.685 A 47.264 47.264 0 0 1 302 36.201 Q 302 46.901 297.65 55.051 Q 293.3 63.201 285.5 67.801 A 33.112 33.112 0 0 1 272.695 72.076 A 42.076 42.076 0 0 1 267.4 72.401 A 38.377 38.377 0 0 1 257.31 71.122 Z M 267.4 60.301 Q 273.8 60.301 278.45 57.351 A 19.384 19.384 0 0 0 285.007 50.332 A 23.708 23.708 0 0 0 285.7 49.001 Q 288.298 43.605 288.3 36.214 A 41.41 41.41 0 0 0 288.3 36.201 A 36.243 36.243 0 0 0 287.837 30.255 Q 287.203 26.444 285.7 23.351 A 20.684 20.684 0 0 0 281.897 17.869 A 18.518 18.518 0 0 0 278.45 15.101 A 18.962 18.962 0 0 0 271.252 12.488 A 24.993 24.993 0 0 0 267.4 12.201 Q 261.1 12.201 256.4 15.101 A 19.116 19.116 0 0 0 249.606 22.369 A 23.212 23.212 0 0 0 249.1 23.351 A 24.79 24.79 0 0 0 247.071 29.642 Q 246.554 32.4 246.505 35.546 A 42.46 42.46 0 0 0 246.5 36.201 Q 246.5 43.536 249.054 48.906 A 22.419 22.419 0 0 0 249.1 49.001 Q 251.7 54.401 256.4 57.351 Q 261.1 60.301 267.4 60.301 Z M 57.6 71.201 L 44.1 71.201 L 44.1 1.201 L 57.6 1.201 L 57.6 71.201 Z M 13.5 71.201 L 0 71.201 L 0 1.201 L 13.5 1.201 L 13.5 71.201 Z M 46.4 40.901 L 11.6 40.901 L 11.6 30.001 L 46.4 30.001 L 46.4 40.901 Z M 313.661 71.384 A 7.593 7.593 0 0 1 310.2 69.451 Q 307.9 67.201 307.9 63.901 A 7.784 7.784 0 0 1 308.568 60.648 A 7.588 7.588 0 0 1 310.2 58.351 A 7.741 7.741 0 0 1 314.361 56.264 A 11.025 11.025 0 0 1 316.3 56.101 A 9.407 9.407 0 0 1 319.106 56.501 A 7.589 7.589 0 0 1 322.2 58.351 Q 324.5 60.601 324.5 63.901 A 7.784 7.784 0 0 1 323.832 67.153 A 7.588 7.588 0 0 1 322.2 69.451 A 7.804 7.804 0 0 1 317.42 71.643 A 10.597 10.597 0 0 1 316.3 71.701 A 10.443 10.443 0 0 1 313.661 71.384 Z" vector-effect="non-scaling-stroke"/></g></svg>