<svg viewBox="0 0 236.9 73.201" xmlns="http://www.w3.org/2000/svg"><g fill-rule="nonzero" fill="#2f2f2f"><path d="M 28.8 72 L 14.8 72 L 0 21.6 L 13.3 21.6 L 23.1 62.5 L 20.6 62.4 L 31.8 21.6 L 46.8 21.6 L 58 62.4 L 55.4 62.5 L 65.3 21.6 L 78.6 21.6 L 63.8 72 L 49.8 72 L 37.9 30 L 40.7 30 L 28.8 72 Z M 236.9 72 L 220.1 72 L 198.6 44.4 L 217.9 21.6 L 233.8 21.6 L 208.9 50.1 L 208.9 39.4 L 236.9 72 Z M 159.7 72 L 146.2 72 L 146.2 21.6 L 158.2 21.6 L 159.5 30.9 Q 161.3 27.6 164.05 25.3 Q 166.8 23 170.35 21.7 A 21.336 21.336 0 0 1 175.586 20.527 A 26.288 26.288 0 0 1 178.2 20.4 L 178.2 34.7 L 173.6 34.7 A 22.558 22.558 0 0 0 170.111 34.96 A 18.704 18.704 0 0 0 168.05 35.4 A 12.343 12.343 0 0 0 164.72 36.845 A 11.252 11.252 0 0 0 163.6 37.65 A 8.886 8.886 0 0 0 161.494 40.18 A 11.708 11.708 0 0 0 160.7 41.9 A 14.386 14.386 0 0 0 160.053 44.325 Q 159.7 46.266 159.7 48.7 L 159.7 72 Z M 200.6 72 L 187.1 72 L 187.1 0 L 200.6 0 L 200.6 72 Z M 100.566 71.891 A 23.995 23.995 0 0 1 96.05 69.85 Q 90.3 66.5 86.95 60.55 Q 83.6 54.6 83.6 46.9 Q 83.6 39 86.95 33.05 Q 90.3 27.1 96.1 23.75 A 25.194 25.194 0 0 1 107.762 20.429 A 30.135 30.135 0 0 1 109.1 20.4 A 27.191 27.191 0 0 1 117.123 21.55 A 23.877 23.877 0 0 1 122.15 23.75 Q 127.9 27.1 131.25 33.05 A 25.976 25.976 0 0 1 134.335 42.559 A 33.027 33.027 0 0 1 134.6 46.8 Q 134.6 54.6 131.25 60.55 Q 127.9 66.5 122.1 69.85 A 25.168 25.168 0 0 1 111.023 73.134 A 30.512 30.512 0 0 1 109 73.2 A 26.552 26.552 0 0 1 100.566 71.891 Z M 109 61.5 A 12.321 12.321 0 0 0 112.634 60.98 A 10.773 10.773 0 0 0 115.05 59.9 A 10.074 10.074 0 0 0 118.114 56.983 A 13.49 13.49 0 0 0 119.25 55 Q 120.578 52.173 120.768 48.17 A 28.882 28.882 0 0 0 120.8 46.8 A 25.632 25.632 0 0 0 120.582 43.357 Q 120.338 41.559 119.821 40.052 A 13.254 13.254 0 0 0 119.25 38.65 A 12.945 12.945 0 0 0 117.523 35.916 A 10.291 10.291 0 0 0 115.05 33.75 A 10.984 10.984 0 0 0 109.306 32.102 A 13.081 13.081 0 0 0 109.1 32.1 Q 105.9 32.1 103.2 33.75 Q 100.5 35.4 98.95 38.65 A 14.68 14.68 0 0 0 97.864 41.934 Q 97.545 43.437 97.445 45.173 A 28.416 28.416 0 0 0 97.4 46.8 Q 97.4 50.743 98.404 53.65 A 13.657 13.657 0 0 0 98.95 55 A 12.904 12.904 0 0 0 100.549 57.602 A 9.854 9.854 0 0 0 103.15 59.9 Q 105.8 61.5 109 61.5 Z" vector-effect="non-scaling-stroke"/></g></svg>